<?xml version="1.0" encoding="utf-8"?>
<!-- Generator: Adobe Illustrator 18.0.0, SVG Export Plug-In . SVG Version: 6.00 Build 0)  -->
<!DOCTYPE svg PUBLIC "-//W3C//DTD SVG 1.1//EN" "http://www.w3.org/Graphics/SVG/1.1/DTD/svg11.dtd">
<svg version="1.1" id="Layer_1" xmlns="http://www.w3.org/2000/svg" xmlns:xlink="http://www.w3.org/1999/xlink" x="0px" y="0px"
	 viewBox="0 0 64 64" enable-background="new 0 0 64 64" xml:space="preserve">
<path d="M64,33c0-10.9-10.5-19.8-23.5-20C36.2,9.6,30.4,7.5,24,7.5c-13.2,0-24,9-24,20c0,5.7,2.9,11.2,7.9,14.9
	c-0.2,0.8-0.6,1.9-1.5,3c-0.7,0.9-0.9,2.1-0.4,3.2c0.5,1.1,1.5,1.7,2.7,1.7c0.2,0,0.3,0,0.5,0c4.2-0.6,7-2.5,8.4-3.6
	c2.1,0.5,4,0.7,5.9,0.8C28,51,33.8,53,40,53c2.1,0,4.2-0.3,6.5-0.8c1.4,1.1,4.2,2.9,8.4,3.6c0.2,0,0.3,0,0.5,0c1.1,0,2-0.6,2.6-1.5
	c0.6-1.1,0.5-2.4-0.3-3.4c-0.9-1.1-1.3-2.2-1.5-3C61.1,44.2,64,38.7,64,33z M17.5,42.6l-1.2-0.3l-0.8,0.9c0,0-1.6,1.7-4.7,2.6
	c1.1-2.2,1.1-4,1.1-4.3v-1.1l-0.9-0.6C6.6,36.8,4,32.3,4,27.5c0-8.8,9-16,20-16s20,7.2,20,16s-9,16-20,16
	C21.9,43.5,19.8,43.2,17.5,42.6z M52.9,45.3L52,45.9V47c0,0.3,0,2.1,1.1,4.3c-3-1-4.6-2.6-4.7-2.6l-0.8-0.9l-1.2,0.3
	C44.2,48.7,42.1,49,40,49c-3.5,0-6.9-0.8-10-2.1c10.3-2.2,18-10.1,18-19.4c0-3.7-1.2-7.1-3.2-10C53.5,19.2,60,25.5,60,33
	C60,37.8,57.4,42.3,52.9,45.3z"/>
</svg>
